<svg xmlns="http://www.w3.org/2000/svg" width="36" height="36" viewBox="0 0 24 24" class=""><path fill-rule="evenodd" d="M12 10.85a1.333 1.333 0 1 1 0 2.666 1.333 1.333 0 0 1 0-2.666zm5.333 0a1.333 1.333 0 1 1 0 2.666 1.333 1.333 0 0 1 0-2.666zm-10.666 0a1.333 1.333 0 1 1 0 2.666 1.333 1.333 0 0 1 0-2.666zm5.333-6a1.333 1.333 0 1 1 0 2.666 1.333 1.333 0 0 1 0-2.666zm5.333 0a1.333 1.333 0 1 1 0 2.666 1.333 1.333 0 0 1 0-2.666zm-10.666 0a1.333 1.333 0 1 1 0 2.666 1.333 1.333 0 0 1 0-2.666zm5.333 12a1.333 1.333 0 1 1 0 2.666 1.333 1.333 0 0 1 0-2.666zm5.333 0a1.333 1.333 0 1 1 0 2.666 1.333 1.333 0 0 1 0-2.666zm-10.666 0a1.333 1.333 0 1 1 0 2.666 1.333 1.333 0 0 1 0-2.666z" clip-rule="evenodd" fill="white"></path></svg>